<?xml version="1.0" encoding="UTF-8"?>
<svg version="1.1" xmlns="http://www.w3.org/2000/svg" width="488" height="511">
<path d="M0 0 C1.09513916 0.16145508 1.09513916 0.16145508 2.21240234 0.32617188 C23.71352664 3.55887436 45.71501771 11.01607754 65 21 C66.28324689 21.61856017 67.56848622 22.23300028 68.85546875 22.84375 C79.69635173 28.05330584 79.69635173 28.05330584 83 32 C83 32.66 83 33.32 83 34 C83.66 34 84.32 34 85 34 C86.74277359 39.22832078 86.68907001 44.26091855 84.6875 49.3125 C81.70331955 54.06508368 79.53199777 55.58988292 74 57 C68.2181107 57.77091857 64.04833951 55.51546572 59 53 C58.39671875 52.69964844 57.7934375 52.39929688 57.171875 52.08984375 C55.91983532 51.46110208 54.66859285 50.83077144 53.41796875 50.19921875 C44.14785558 45.60160204 34.86193422 41.18530739 25 38 C23.99324219 37.67386719 22.98648437 37.34773438 21.94921875 37.01171875 C-23.72161421 23.11190002 -74.39394257 25.10672562 -118 45 C-118.70092773 45.31308105 -119.40185547 45.62616211 -120.12402344 45.94873047 C-129.96119017 50.35757348 -139.20837443 55.06644373 -148.1171875 61.15234375 C-150.71017287 62.81424359 -153.10528389 63.97990631 -156 65 C-156 65.66 -156 66.32 -156 67 C-161.41176471 71 -161.41176471 71 -164 71 C-164 71.66 -164 72.32 -164 73 C-167.46153846 76 -167.46153846 76 -170 76 C-170 76.66 -170 77.32 -170 78 C-175.47619048 83 -175.47619048 83 -178 83 C-178.99 84.98 -178.99 84.98 -180 87 C-180.66 87 -181.32 87 -182 87 C-182.268125 87.59941406 -182.53625 88.19882813 -182.8125 88.81640625 C-184.01705017 91.03135212 -185.14541655 92.25678375 -187 93.9375 C-191.41110634 98.2006447 -194.98843301 103.02690313 -198.66796875 107.9140625 C-200.15148303 109.87717184 -201.67165757 111.81349102 -203.23828125 113.7109375 C-205.16921154 115.96095731 -205.16921154 115.96095731 -206 119 C-206.66 119 -207.32 119 -208 119 C-208.27690674 119.72799805 -208.55381348 120.45599609 -208.83911133 121.20605469 C-209.93244859 123.83742201 -211.16692433 126.22839383 -212.57421875 128.703125 C-220.27127875 142.41161244 -227.41587109 156.03921319 -231.4921875 171.3125 C-232 173 -232 173 -233 174 C-233.98857578 178.24015635 -234.77503217 182.5226227 -235.58398438 186.80029297 C-235.85823799 188.25042507 -236.13551263 189.69998954 -236.41601562 191.14892578 C-246.37537511 242.77475251 -235.60706725 291.5341072 -210.11987305 336.86206055 C-209 339 -209 339 -208 342 C-207.34 342 -206.68 342 -206 342 C-204.95059552 343.63600979 -203.96030183 345.31014848 -203 347 C-198.77384177 353.14630403 -194.33568479 358.98110628 -189.25 364.44140625 C-188 366 -188 366 -188 368 C-186.68 368.66 -185.36 369.32 -184 370 C-184 370.66 -184 371.32 -184 372 C-183.34 372 -182.68 372 -182 372 C-182 372.66 -182 373.32 -182 374 C-180.68 374.66 -179.36 375.32 -178 376 C-178 376.66 -178 377.32 -178 378 C-177.42507812 378.25652344 -176.85015625 378.51304687 -176.2578125 378.77734375 C-173.78504717 380.11640179 -171.95153746 381.67150867 -169.875 383.5625 C-167.13961955 386.07679216 -167.13961955 386.07679216 -164 388 C-164 388.66 -164 389.32 -164 390 C-163.236875 390.28875 -162.47375 390.5775 -161.6875 390.875 C-159 392 -159 392 -156 394 C-156 394.66 -156 395.32 -156 396 C-154.91332031 396.38865234 -154.91332031 396.38865234 -153.8046875 396.78515625 C-150.89556166 398.04523722 -148.66538828 399.55047037 -146.125 401.4375 C-142.18518557 404.26850438 -138.54068539 406.32192062 -134 408 C-134 408.66 -134 409.32 -134 410 C-133.01386719 410.12955078 -133.01386719 410.12955078 -132.0078125 410.26171875 C-128.00413651 411.24443922 -124.56188241 412.99789772 -120.875 414.8125 C-114.35929922 417.94114484 -107.89961181 420.8064818 -101 423 C-99.47632813 423.48726563 -99.47632813 423.48726563 -97.921875 423.984375 C-51.5925004 437.99093011 -4.29823856 434.53403139 40.5 417 C41.3252417 416.67990967 42.1504834 416.35981934 43.00073242 416.0300293 C47.74318428 414.12255576 51.99433257 411.91054063 56.27636719 409.11962891 C64.15787178 404 64.15787178 404 68 404 C68 403.34 68 402.68 68 402 C71.93828536 399.68336156 75.69235185 397.56641751 80 396 C80 395.34 80 394.68 80 394 C85.41176471 390 85.41176471 390 88 390 C88 389.34 88 388.68 88 388 C91.46153846 385 91.46153846 385 94 385 C94 384.34 94 383.68 94 383 C99.47619048 378 99.47619048 378 102 378 C102.66 376.68 103.32 375.36 104 374 C104.66 374 105.32 374 106 374 C106.2475 373.38125 106.495 372.7625 106.75 372.125 C108.23740369 369.59641373 109.43678009 369.28160996 112 368 C112.39058594 367.19369141 112.39058594 367.19369141 112.7890625 366.37109375 C114.54868496 362.92563945 116.96302757 360.07429188 119.375 357.0625 C119.85710937 356.45470703 120.33921875 355.84691406 120.8359375 355.22070312 C122.96347409 352.54104766 125.101779 349.87755256 127.2890625 347.24609375 C129.17055651 345.02717432 129.17055651 345.02717432 130 342 C130.66 342 131.32 342 132 342 C132.23976563 341.33613281 132.47953125 340.67226563 132.7265625 339.98828125 C134.33480779 336.21433142 136.33022433 332.73912834 138.375 329.1875 C142.85423701 321.3861622 146.92889411 313.65652858 150 305.1875 C150.38454346 304.13840454 150.38454346 304.13840454 150.77685547 303.06811523 C151.28725446 301.67517134 151.79625386 300.28171365 152.30371094 298.88769531 C152.89307666 297.28987771 153.509956 295.7022499 154.1328125 294.1171875 C158.98664867 281.61951484 161.50297891 268.28409244 163 255 C163.11214844 254.02675781 163.22429687 253.05351562 163.33984375 252.05078125 C165.71782782 227.1308112 163.47448072 202.66109946 157.5 178.4375 C157.29858398 177.61693115 157.09716797 176.7963623 156.88964844 175.95092773 C155.58383454 170.81622853 153.97538304 165.91412145 152 161 C151.566875 159.91344116 151.566875 159.91344116 151.125 158.80493164 C146.27746569 146.7875141 141.03185161 135.275525 134.0625 124.3125 C132 121 132 121 132 119 C131.34 119 130.68 119 130 119 C128.95650161 117.36021682 127.96817992 115.68535024 127 114 C125.68531923 112.16574479 124.34422552 110.35470711 122.98828125 108.55078125 C122 107 122 107 122 105 C121.34 105 120.68 105 120 105 C116.09987245 99.63732461 115.31973702 95.36863508 115.54296875 88.74609375 C116 86 116 86 118.25 82.9375 C119.1575 82.298125 120.065 81.65875 121 81 C121.598125 80.47792969 122.19625 79.95585938 122.8125 79.41796875 C127.1133377 76.63010431 132.10693067 77.11774581 137 78 C141.3892738 80.456067 144.22241694 83.47723317 146.5 87.9375 C146.665 88.618125 146.83 89.29875 147 90 C147.66 90 148.32 90 149 90 C150.48046875 92.0546875 150.48046875 92.0546875 152.1875 94.875 C155.13435844 99.65285626 158.24031174 104.25370533 161.51953125 108.80859375 C163.69941126 112.0352763 165 114.05546665 165 118 C165.66 118 166.32 118 167 118 C196.04288613 179.45477862 204.77188732 243.3441771 182.0859375 308.62109375 C180.20912595 313.81272589 178.15525989 318.91829496 176 324 C175.66806641 324.78890625 175.33613281 325.5778125 174.99414062 326.390625 C169.45651333 339.32960715 162.26746184 351.04160874 154.48974609 362.74853516 C153.5660421 364.14453618 152.6549142 365.54905591 151.76416016 366.96630859 C150.8925102 368.34363631 149.95441233 369.678674 149 371 C148.34 371 147.68 371 147 371 C146.731875 371.57234375 146.46375 372.1446875 146.1875 372.734375 C144.95867364 375.07884634 143.57477824 377.12404938 142 379.25 C141.2265625 380.30960937 141.2265625 380.30960937 140.4375 381.390625 C139.963125 381.92171875 139.48875 382.4528125 139 383 C138.34 383 137.68 383 137 383 C136.6596875 383.804375 136.6596875 383.804375 136.3125 384.625 C133.23070366 390.20158385 128.85979891 394.11706456 124.0625 398.1875 C121.36929496 400.55425594 118.90672505 403.11032582 116.4453125 405.71484375 C115 407 115 407 113 407 C113 407.66 113 408.32 113 409 C110.98046875 410.6640625 110.98046875 410.6640625 108.1875 412.625 C107.17429687 413.34171875 106.16109375 414.0584375 105.1171875 414.796875 C104.08851563 415.52390625 103.05984375 416.2509375 102 417 C100.27023697 418.29086793 98.54105948 419.58252088 96.8125 420.875 C83.22200439 430.72038745 68.65655732 439.54950017 52.84423828 445.31420898 C50.41488381 446.21757895 48.058104 447.26569307 45.6875 448.3125 C22.97809719 457.71826012 -1.91310315 463.13417278 -26.53125 463.16796875 C-27.40664429 463.17129715 -28.28203857 463.17462555 -29.18395996 463.17805481 C-31.02595501 463.18308093 -32.86795903 463.18546448 -34.70996094 463.18530273 C-37.46565591 463.18747295 -40.22093889 463.20563057 -42.9765625 463.22460938 C-58.71058062 463.27487865 -73.77568071 462.21098193 -89 458 C-90.39380195 457.6987754 -91.78962151 457.40670175 -93.1875 457.125 C-124.77757736 450.15576051 -154.77115857 435.29478383 -180.0625 415.26171875 C-182.14906419 413.65517531 -184.16365958 412.23353945 -186.375 410.83203125 C-187.24125 410.22746094 -188.1075 409.62289063 -189 409 C-189 408.34 -189 407.68 -189 407 C-189.58910156 406.73832031 -190.17820312 406.47664063 -190.78515625 406.20703125 C-193.11785434 404.9357725 -194.60354368 403.59769469 -196.4375 401.6875 C-197.0459375 401.06101562 -197.654375 400.43453125 -198.28125 399.7890625 C-198.8484375 399.19867188 -199.415625 398.60828125 -200 398 C-201.2065625 396.7934375 -201.2065625 396.7934375 -202.4375 395.5625 C-203.283125 394.716875 -204.12875 393.87125 -205 393 C-205.68835938 392.33484375 -206.37671875 391.6696875 -207.0859375 390.984375 C-207.82070312 390.26765625 -208.55546875 389.5509375 -209.3125 388.8125 C-210.00988281 388.13832031 -210.70726562 387.46414063 -211.42578125 386.76953125 C-213 385 -213 385 -213 383 C-213.66 383 -214.32 383 -215 383 C-216.9453125 380.8828125 -216.9453125 380.8828125 -219.125 378.125 C-219.84945312 377.22007812 -220.57390625 376.31515625 -221.3203125 375.3828125 C-223 373 -223 373 -223 371 C-223.66 371 -224.32 371 -225 371 C-226.33984375 369.19140625 -226.33984375 369.19140625 -227.9375 366.5625 C-230.08342082 363.06758746 -232.24413248 359.61118397 -234.5546875 356.22265625 C-251.64063681 330.98302464 -262.95933449 301.24898643 -267.66015625 271.12890625 C-267.89582528 269.65258878 -268.14691374 268.17868221 -268.41015625 266.70703125 C-276.78117591 219.87456988 -268.91382333 168.25042735 -246.6640625 126.21484375 C-245.26391106 123.50985634 -244.0663724 120.84904547 -243 118 C-242.34 118 -241.68 118 -241 118 C-240.91621094 117.48308594 -240.83242187 116.96617187 -240.74609375 116.43359375 C-239.69747997 113.01324618 -237.90315101 110.10359247 -236.0625 107.0625 C-235.66571045 106.4037085 -235.2689209 105.74491699 -234.86010742 105.06616211 C-231.36580691 99.38101771 -227.45593298 94.1126492 -223.30078125 88.8984375 C-220.81480814 85.76670227 -218.46900681 82.55368692 -216.15625 79.29296875 C-215.58390625 78.65294922 -215.58390625 78.65294922 -215 78 C-214.34 78 -213.68 78 -213 78 C-212.773125 77.46375 -212.54625 76.9275 -212.3125 76.375 C-209.41756973 71.13655475 -205.43385618 67.32471788 -200.84375 63.58984375 C-199.38997383 62.33626981 -198.00633134 61.00137126 -196.65234375 59.640625 C-175.84989972 38.93009162 -149.44887613 23.0372756 -122 13 C-119.85380014 12.14675469 -117.70797008 11.29257866 -115.5625 10.4375 C-79.85749867 -3.21315762 -37.66090374 -6.22494277 0 0 Z " fill="#080808" transform="translate(282,25)"/>
<path d="M0 0 C1.85625 -0.00773437 1.85625 -0.00773437 3.75 -0.015625 C7 0.25 7 0.25 10 2.25 C10 2.91 10 3.57 10 4.25 C10.60199219 4.51296875 11.20398438 4.7759375 11.82421875 5.046875 C14.1189858 6.31579466 15.21138351 7.45130916 16.8125 9.5 C18.86823818 12.00510809 20.9300568 14.13544446 23.4375 16.1875 C26.07375903 18.36024096 28.29000226 20.64447694 30.5 23.25 C32.69192291 25.83333772 34.88247394 28.09988931 37.5 30.25 C40.81555768 32.97349381 43.47629166 36.04307764 46.24609375 39.30859375 C48.42075385 41.71573422 50.8196669 43.70172611 53.3203125 45.7578125 C55.60291096 47.78560927 57.44680027 50.0890857 59.37890625 52.4453125 C61.82959211 55.17354592 64.6271321 57.45048076 67.4609375 59.76953125 C67.96882812 60.25808594 68.47671875 60.74664062 69 61.25 C69 61.91 69 62.57 69 63.25 C69.598125 63.50910156 70.19625 63.76820313 70.8125 64.03515625 C73.16499365 65.3416304 74.34096193 66.59116113 76 68.6875 C78.1453137 71.31197006 80.25711391 73.24558324 83 75.25 C83 75.91 83 76.57 83 77.25 C84.32 77.91 85.64 78.57 87 79.25 C87 79.91 87 80.57 87 81.25 C88.32 81.91 89.64 82.57 91 83.25 C91 83.91 91 84.57 91 85.25 C91.66 85.25 92.32 85.25 93 85.25 C93 85.91 93 86.57 93 87.25 C94.32 87.91 95.64 88.57 97 89.25 C97 89.91 97 90.57 97 91.25 C98.32 91.91 99.64 92.57 101 93.25 C101 93.91 101 94.57 101 95.25 C101.5775 95.45625 102.155 95.6625 102.75 95.875 C105.91076768 97.80658025 107.69880765 99.82615548 109 103.25 C109.80763472 108.18478502 110.20578574 112.99790341 107.7890625 117.51171875 C104.77555061 121.16005675 101.68607392 123.77034394 96.921875 124.62109375 C90.68207559 124.81187898 86.74898982 123.29688044 82 119.25 C80.14907929 117.30313523 78.42332949 115.29530902 76.71484375 113.22265625 C75.08362063 111.3461923 73.42157841 109.82064427 71.5 108.25 C68.18444232 105.52650619 65.52370834 102.45692236 62.75390625 99.19140625 C60.58044518 96.78559299 58.18334945 94.80045868 55.68359375 92.74609375 C53.36907884 90.68934384 51.49378609 88.34856829 49.52734375 85.96484375 C47.9785516 84.22591854 46.36008588 82.78980331 44.5625 81.3125 C41.92624097 79.13975904 39.70999774 76.85552306 37.5 74.25 C35.30807709 71.66666228 33.11752606 69.40011069 30.5 67.25 C27.17883426 64.51843447 24.44059635 61.46579232 21.67578125 58.1796875 C19.8726661 56.10337308 17.95211467 54.18576951 16 52.25 C15.99853344 53.27006197 15.99706688 54.29012394 15.99555588 55.34109688 C15.95897209 80.15356739 15.89953719 104.9659028 15.81609726 129.77826118 C15.77627627 141.77730664 15.7438993 153.77628621 15.72900391 165.77539062 C15.71600328 176.23297283 15.68907921 186.69041027 15.64538693 197.14791095 C15.62273646 202.68586042 15.60709147 208.22363111 15.60811615 213.76163101 C15.60886064 218.97374227 15.59099475 224.18545777 15.55883217 229.39746666 C15.55031074 231.31064614 15.54859841 233.2238699 15.55419731 235.13706017 C15.56082499 237.74972488 15.54294674 240.36112587 15.51898193 242.97366333 C15.52674235 243.73048499 15.53450277 244.48730665 15.54249835 245.26706231 C15.4590767 250.40562086 14.1663601 253.25209704 11 257.25 C10.39800781 258.01828125 9.79601562 258.7865625 9.17578125 259.578125 C5.28377645 262.56874987 1.1690895 262.02249476 -3.5625 261.9140625 C-8.30971202 260.99698745 -10.12785174 259.04007236 -12.86328125 255.1953125 C-15.18864586 251.21582255 -15.15245657 247.98158461 -15.15821838 243.4546814 C-15.16562535 242.23317774 -15.16562535 242.23317774 -15.17318195 240.98699725 C-15.18860804 238.243124 -15.19693136 235.49927423 -15.20532227 232.75537109 C-15.21489678 230.79450777 -15.2249066 228.83364652 -15.23532104 226.87278748 C-15.26242245 221.53631252 -15.28340361 216.19982868 -15.30332303 210.86332273 C-15.32515036 205.29124031 -15.35255493 199.71918545 -15.37937927 194.14712524 C-15.42935025 183.58970706 -15.4742727 173.03227361 -15.51740164 162.4748255 C-15.56673642 150.45806089 -15.62166846 138.44132394 -15.67708123 126.42458606 C-15.79096888 101.69974983 -15.8977931 76.97488708 -16 52.25 C-18.72979119 54.96177917 -21.39507385 57.63060507 -23.8125 60.625 C-26.61840356 63.9574613 -29.74715289 66.68697821 -33.0625 69.5 C-34.89349314 71.15380025 -36.43607986 72.84609722 -38 74.75 C-40.72349381 78.06555768 -43.79307764 80.72629166 -47.05859375 83.49609375 C-49.46573422 85.67075385 -51.45172611 88.0696669 -53.5078125 90.5703125 C-55.04261047 92.29796466 -56.65377602 93.72088251 -58.4375 95.1875 C-61.79654522 97.95464298 -64.50586082 101.06759549 -67.31640625 104.37890625 C-69.63844322 106.95954594 -72.33551328 109.0295944 -75 111.25 C-76.1411074 112.56957443 -77.26510644 113.90406573 -78.375 115.25 C-82.27543614 119.76629448 -86.274807 123.53410407 -92.296875 124.69140625 C-97.64965235 124.96982252 -100.85937271 123.81286534 -105 120.25 C-108.57520147 116.47799845 -109.58797097 114.07140694 -109.625 108.875 C-109.4723126 103.27009985 -108.46159106 100.26844713 -104.5078125 96.32421875 C-103 95.25 -103 95.25 -101 95.25 C-100.34 93.93 -99.68 92.61 -99 91.25 C-98.34 91.25 -97.68 91.25 -97 91.25 C-96.34 89.93 -95.68 88.61 -95 87.25 C-94.34 87.25 -93.68 87.25 -93 87.25 C-92.7525 86.63125 -92.505 86.0125 -92.25 85.375 C-90.76259631 82.84641373 -89.56321991 82.53160996 -87 81.25 C-85.73195434 79.2164052 -85.73195434 79.2164052 -85 77.25 C-84.34 77.25 -83.68 77.25 -83 77.25 C-82.34 75.93 -81.68 74.61 -81 73.25 C-80.34 73.25 -79.68 73.25 -79 73.25 C-79 72.59 -79 71.93 -79 71.25 C-78.34 71.25 -77.68 71.25 -77 71.25 C-77 70.59 -77 69.93 -77 69.25 C-72.69767442 64.48255814 -72.69767442 64.48255814 -69 63.25 C-68.731875 62.6725 -68.46375 62.095 -68.1875 61.5 C-66.80541473 58.88131211 -65.00008994 57.54239498 -62.703125 55.73046875 C-60.7833263 54.06165291 -59.20466001 52.25424326 -57.5625 50.3125 C-55.34930537 47.71017225 -53.13979287 45.41734672 -50.5 43.25 C-47.88247394 41.09988931 -45.69192291 38.83333772 -43.5 36.25 C-41.30807709 33.66666228 -39.11752606 31.40011069 -36.5 29.25 C-33.90472037 27.11713099 -31.73310564 24.8768663 -29.5625 22.3125 C-26.60876863 18.82895134 -23.41238642 15.930414 -19.92578125 12.9921875 C-17.41074049 10.71691736 -15.32036594 8.19627515 -13.2265625 5.53515625 C-12.82179688 5.11105469 -12.41703125 4.68695313 -12 4.25 C-11.34 4.25 -10.68 4.25 -10 4.25 C-10 3.59 -10 2.93 -10 2.25 C-6.32077133 -0.20281911 -4.37740649 -0.01823919 0 0 Z " fill="#080808" transform="translate(244,124.75)"/>
<path d="M0 0 C0.66 0 1.32 0 2 0 C0.40907948 4.13639336 -2.60474918 7.23213248 -6 10 C-6.66 10 -7.32 10 -8 10 C-7.34 8.68 -6.68 7.36 -6 6 C-5.34 6 -4.68 6 -4 6 C-3.71125 5.38125 -3.4225 4.7625 -3.125 4.125 C-2 2 -2 2 0 0 Z " fill="#515151" transform="translate(155,206)"/>
<path d="M0 0 C0.66 0 1.32 0 2 0 C0.4411666 3.82622743 -1.95433582 6.25147379 -5 9 C-5.99 9.33 -6.98 9.66 -8 10 C-8 9.34 -8 8.68 -8 8 C-7.34 8 -6.68 8 -6 8 C-6 7.34 -6 6.68 -6 6 C-4.37550757 4.29220027 -2.70779973 2.62449243 -1 1 C-0.67 0.67 -0.34 0.34 0 0 Z " fill="#494949" transform="translate(173,188)"/>
<path d="M0 0 C0.66 0.33 1.32 0.66 2 1 C-1.96570677 5.38808974 -5.01191871 8.68554313 -11 10 C-7.50640535 6.40365256 -3.88901869 3.16548033 0 0 Z " fill="#5F5F5F" transform="translate(106,67)"/>
<path d="M0 0 C0.66 0.33 1.32 0.66 2 1 C-0.64 3.97 -3.28 6.94 -6 10 C-6.66 9.67 -7.32 9.34 -8 9 C-6.8553125 7.88625 -6.8553125 7.88625 -5.6875 6.75 C-3.5606298 4.5736677 -1.7440044 2.47832204 0 0 Z " fill="#484848" transform="translate(218,143)"/>
<path d="M0 0 C0 3 0 3 -1.53125 4.60546875 C-2.1809375 5.12753906 -2.830625 5.64960938 -3.5 6.1875 C-4.1496875 6.71730469 -4.799375 7.24710938 -5.46875 7.79296875 C-5.9740625 8.19128906 -6.479375 8.58960938 -7 9 C-7 6 -7 6 -5.46875 4.39453125 C-4.49421875 3.61142578 -4.49421875 3.61142578 -3.5 2.8125 C-2.8503125 2.28269531 -2.200625 1.75289062 -1.53125 1.20703125 C-1.0259375 0.80871094 -0.520625 0.41039062 0 0 Z " fill="#484848" transform="translate(193,169)"/>
<path d="M0 0 C0.33 0.99 0.66 1.98 1 3 C-0.65 4.65 -2.3 6.3 -4 8 C-4.66 7.67 -5.32 7.34 -6 7 C-4.02 4.69 -2.04 2.38 0 0 Z " fill="#575757" transform="translate(401,383)"/>
</svg>
