<svg width="404" height="31" viewBox="0 0 404 31" fill="none" xmlns="http://www.w3.org/2000/svg">
<path d="M36.131 29.2752C35.9828 29.0809 35.8942 28.8706 35.8397 28.697C35.7851 28.5234 35.7596 28.329 35.7596 28.1395L35.7903 3.07268C35.7903 2.59801 35.8959 2.12971 36.0952 1.69326C36.1088 1.663 36.1208 1.63752 36.1327 1.61681C36.6455 0.820382 36.9913 0.841088 37.6454 0.579859C37.7596 0.533666 37.8379 0.503405 37.8379 0.503405V0.025548L28.9794 0.0159912V0.493848C28.9794 0.493848 29.6608 0.653126 30.1702 1.13258C30.3525 1.30301 30.5126 1.49416 30.6438 1.66938C30.8925 2.00228 31.0203 2.40368 31.0203 2.80986L30.9896 28.0566C30.9896 28.3704 30.9419 28.6826 30.8516 28.9837C30.8312 29.049 30.8039 29.1111 30.7664 29.1685C30.5995 29.4138 30.3814 29.624 30.1259 29.7865C29.9879 29.8757 29.8346 29.9426 29.6795 30.0015L28.9436 30.2819V30.5988L37.8022 30.602V30.2898C37.8022 30.2898 36.78 30.129 36.1327 29.2736L36.131 29.2752Z" fill="black"/>
<path d="M75.3131 29.2752C75.1649 29.0809 75.0763 28.8706 75.0218 28.697C74.9673 28.5234 74.9417 28.329 74.9417 28.1395L74.9724 3.07268C74.9724 2.59801 75.078 2.12971 75.2773 1.69326C75.291 1.663 75.3029 1.63752 75.3148 1.61681C75.8276 0.820382 76.1734 0.841088 76.8276 0.579859C76.9417 0.533666 77.0201 0.503405 77.0201 0.503405V0.025548L68.1615 0.0159912V0.493848C68.1615 0.493848 68.8429 0.653126 69.3523 1.13258C69.5346 1.30301 69.6947 1.49416 69.8259 1.66938C70.0746 2.00228 70.2024 2.40368 70.2024 2.80986L70.1717 28.0566C70.1717 28.3704 70.124 28.6826 70.0337 28.9837C70.0133 29.049 69.986 29.1111 69.9485 29.1685C69.7816 29.4138 69.5635 29.624 69.308 29.7865C69.17 29.8757 69.0167 29.9426 68.8617 30.0015L68.1257 30.2819V30.5988L76.9843 30.602V30.2898C76.9843 30.2898 75.9622 30.129 75.3148 29.2736L75.3131 29.2752Z" fill="black"/>
<path d="M300.355 29.2752C300.207 29.0809 300.118 28.8706 300.064 28.697C300.009 28.5234 299.983 28.329 299.983 28.1395L300.014 3.07268C300.014 2.59801 300.12 2.12971 300.319 1.69326C300.333 1.663 300.345 1.63752 300.357 1.61681C300.869 0.820382 301.215 0.841088 301.869 0.579859C301.983 0.533666 302.062 0.503405 302.062 0.503405V0.025548L293.203 0.0159912V0.493848C293.203 0.493848 293.885 0.653126 294.394 1.13258C294.576 1.30301 294.736 1.49416 294.868 1.66938C295.116 2.00228 295.244 2.40368 295.244 2.80986L295.213 28.0566C295.213 28.3704 295.166 28.6826 295.075 28.9837C295.055 29.049 295.028 29.1111 294.99 29.1685C294.823 29.4138 294.605 29.624 294.35 29.7865C294.212 29.8757 294.058 29.9426 293.903 30.0015L293.167 30.2819V30.5988L302.026 30.602V30.2898C302.026 30.2898 301.004 30.129 300.357 29.2736L300.355 29.2752Z" fill="black"/>
<path d="M331.36 29.2752C331.212 29.0809 331.123 28.8706 331.068 28.697C331.014 28.5234 330.988 28.329 330.988 28.1395L331.005 14.4505L331.019 3.07427C331.019 2.5996 331.125 2.1313 331.324 1.69486C331.338 1.6646 331.35 1.63911 331.361 1.61841C331.874 0.821979 332.22 0.842684 332.874 0.581456C332.988 0.535263 333.067 0.505002 333.067 0.505002V0.0271446L324.208 0.0175781V0.495435C324.208 0.495435 324.89 0.654723 325.399 1.13417C325.581 1.30461 325.741 1.49575 325.873 1.67096C326.121 2.00387 326.249 2.40528 326.249 2.81146L326.218 28.0582C326.218 28.372 326.171 28.6842 326.08 28.9853C326.06 29.0506 326.033 29.1127 325.995 29.1701C325.828 29.4154 325.61 29.6256 325.355 29.7881C325.217 29.8773 325.063 29.9442 324.908 30.0031L324.172 30.2835V30.6004L333.031 30.6036V30.2914C333.031 30.2914 332.009 30.1305 331.361 29.2752H331.36Z" fill="black"/>
<path d="M354.368 21.4367C354.22 21.2934 354.132 21.1405 354.077 21.013C354.023 20.8856 353.997 20.7438 353.997 20.6053L354.019 2.25555C354.019 1.90831 354.125 1.56584 354.324 1.24567C354.338 1.22337 354.35 1.20426 354.362 1.18993C354.873 0.60694 355.22 0.622867 355.874 0.431725C355.988 0.398275 356.067 0.375969 356.067 0.375969V0.025548L347.379 0.0159912V0.366412C347.379 0.366412 348.06 0.484284 348.569 0.834712C348.752 0.960548 348.912 1.09913 349.043 1.22815C349.293 1.47186 349.419 1.76494 349.419 2.06281L349.397 20.5447C349.397 20.7741 349.35 21.0019 349.259 21.2233C349.239 21.2711 349.212 21.3173 349.174 21.3587C349.007 21.5387 348.789 21.6916 348.534 21.811C348.396 21.8764 348.242 21.9257 348.087 21.9687L347.353 22.1726V22.4036L356.041 22.4084V22.179C356.041 22.179 355.019 22.0611 354.372 21.4335L354.368 21.4367Z" fill="black"/>
<path d="M89.6232 29.2752C89.4749 29.0809 89.3864 28.8706 89.3318 28.697C89.2773 28.5234 89.2518 28.329 89.2518 28.1395L89.2824 3.07268C89.2824 2.59801 89.3881 2.12971 89.5874 1.69326C89.601 1.663 89.6129 1.63752 89.6249 1.61681C90.1376 0.820382 90.4835 0.841088 91.1376 0.579859C91.2518 0.533666 91.3301 0.503405 91.3301 0.503405V0.025548L82.4716 0.0159912V0.493848C82.4716 0.493848 83.153 0.653126 83.6624 1.13258C83.8446 1.30301 84.0048 1.49416 84.136 1.66938C84.3847 2.00228 84.5124 2.40368 84.5124 2.80986L84.4818 28.0566C84.4818 28.3704 84.4341 28.6826 84.3438 28.9837C84.3233 29.049 84.2961 29.1111 84.2586 29.1685C84.0917 29.4138 83.8736 29.624 83.6181 29.7865C83.4801 29.8757 83.3267 29.9426 83.1717 30.0015L82.4358 30.2819V30.5988L91.2944 30.602V30.2898C91.2944 30.2898 90.2722 30.129 89.6249 29.2736L89.6232 29.2752Z" fill="black"/>
<path d="M47.1888 6.07528C45.1786 8.64774 44.8191 12.9246 44.8038 13.5617C44.6334 20.5703 47.0014 24.2275 49.4034 26.6231C50.044 27.2619 50.6726 27.7588 51.2552 28.1475C52.5908 29.0363 54.2007 29.4903 55.8395 29.4903C59.4545 29.4903 61.6998 28.0997 63.032 26.7824C65.9281 23.9153 66.0984 23.1189 68.1427 20.7296C70.187 18.3403 72.7509 15.9972 75.6384 14.6767C83.6452 11.0131 91.3113 12.2874 94.7184 13.4024C98.4305 14.6178 100.851 16.5881 103.066 18.3403C105.281 20.0924 106.473 22.3224 106.473 22.3224L102.384 6.71242C102.384 6.71242 96.2516 27.7381 96.2516 27.8974C96.2516 28.0567 96.0813 28.8531 96.2516 29.1717C96.422 29.4903 96.7627 29.8089 96.9331 29.9681C97.1034 30.1274 97.6145 30.446 97.6145 30.446V30.6053H92.3334V30.446C92.3334 30.446 93.4271 30.0765 94.037 29.6496C94.7184 29.1717 94.8888 28.6939 94.8888 28.6939L103.229 0.0224221H105.281C105.281 0.0224221 111.582 23.4374 112.093 25.1896C112.604 26.9417 113.115 29.0124 113.967 29.6496C114.819 30.2867 115.5 30.4253 115.5 30.4253V30.6053H106.642V30.446C106.642 30.446 107.664 30.1274 108.005 29.6496C108.189 29.3931 108.175 28.6939 108.005 27.7381C107.834 26.7824 107.494 24.871 105.449 22.1631C103.405 19.4553 99.87 16.5212 98.4646 15.7917C95.3981 14.1989 91.8206 11.9689 82.7917 13.2431C81.267 13.4582 78.1921 14.3581 76.4885 15.1546C74.7849 15.951 71.7185 18.0217 69.5039 20.5703C67.8599 22.4626 67.2892 23.1189 65.5856 25.1896C60.9349 30.8426 53.7407 31.8636 48.5499 29.331C44.6317 27.4196 39.6914 22.8003 39.8617 15.951C40.0849 6.98799 44.4614 0.340994 54.5124 0.0224221C59.4528 -0.133678 62.0797 1.68218 64.5635 4.00457C66.2671 5.59742 66.7781 6.39385 66.7781 6.39385L66.7884 10.0574H65.9264C65.9264 10.0574 65.9008 9.26577 65.756 8.62385C65.0746 5.59742 63.2006 3.36742 58.601 2.09314C54.9724 1.08804 50.4239 1.93385 47.1871 6.07528H47.1888Z" fill="black"/>
<path d="M214.309 6.71234C214.309 6.71234 208.176 27.7381 208.176 27.8973C208.176 28.0566 208.006 28.8531 208.176 29.1716C208.347 29.4902 208.687 29.8088 208.858 29.9681C209.028 30.1273 209.539 30.4459 209.539 30.4459V30.6052H204.258V30.4459L205.962 29.6495C206.643 29.3309 206.813 28.6938 206.813 28.6938L215.154 0.0223389H217.205C217.205 0.0223389 223.507 23.4373 224.018 25.1895C224.529 26.9416 225.04 29.0123 225.892 29.6495C226.743 30.2866 227.425 30.4252 227.425 30.4252V30.6052H218.566V30.4459C218.566 30.4459 219.696 29.8677 219.929 29.6495C220.44 29.1716 220.1 28.3752 219.929 27.7381L214.307 6.71234H214.309Z" fill="black"/>
<path d="M124.531 0.81879C125.894 0.500218 127.086 0.659504 127.768 0.81879C128.449 0.978076 129.642 1.45593 130.153 2.41165C130.664 3.36736 131.516 5.75665 131.516 5.75665H132.197L132.027 0.0223614L116.202 0.0175781V0.495435C116.202 0.495435 116.884 0.654723 117.393 1.13417C117.575 1.30461 117.736 1.49575 117.867 1.67096C118.115 2.00387 118.243 2.40528 118.243 2.81146L118.212 28.0582C118.212 28.372 118.165 28.6842 118.075 28.9853C118.054 29.0506 118.027 29.1127 117.989 29.1701C117.766 29.4966 117.453 29.7626 117.081 29.9362L116.168 30.2835V30.6004L134.074 30.6052L134.238 23.2781H133.734C133.734 23.2781 132.712 26.3045 132.03 27.5788C131.349 28.8531 131.008 29.9681 128.865 29.9681H124.364C124.023 29.9681 123.621 29.8359 123.461 29.616C123.265 29.3469 123.148 29.0363 123.09 28.7145L123.046 28.4708C123.006 28.251 122.986 28.028 122.986 27.805L123.001 14.8216L123.017 2.76845C123.017 2.38616 123.117 2.00388 123.332 1.67894C123.693 1.13259 124.166 0.904804 124.534 0.81879H124.531Z" fill="black"/>
<path d="M127.367 15.7933H122.998V14.8216L128.042 14.836C128.221 14.836 128.393 14.7786 128.528 14.6687C128.65 14.5684 128.805 14.417 128.96 14.2004C129.301 13.7225 129.471 13.2447 129.471 13.2447H130.156L130.153 17.5454H129.471C129.471 17.5454 129.402 17.2921 129.279 17.0038C129.139 16.6757 128.902 16.3906 128.601 16.1787C128.245 15.9302 127.812 15.7949 127.367 15.7949V15.7933Z" fill="black"/>
<path d="M193.696 0.81879C195.059 0.500218 196.251 0.659504 196.933 0.81879C197.614 0.978076 198.807 1.45593 199.318 2.41165C199.829 3.36736 200.681 5.75665 200.681 5.75665H201.362L201.192 0.0223614L185.367 0.0175781V0.495435C185.367 0.495435 186.049 0.654723 186.558 1.13417C186.74 1.30461 186.901 1.49575 187.032 1.67096C187.28 2.00387 187.408 2.40528 187.408 2.81146L187.378 28.0582C187.378 28.372 187.33 28.6842 187.24 28.9853C187.219 29.0506 187.192 29.1127 187.154 29.1701C186.931 29.4966 186.618 29.7626 186.246 29.9362L185.333 30.2835V30.6004L203.239 30.6052L203.403 23.2781H202.899C202.899 23.2781 201.877 26.3045 201.195 27.5788C200.514 28.8531 200.173 29.9681 198.03 29.9681H193.529C193.188 29.9681 192.786 29.8359 192.626 29.616C192.43 29.3469 192.313 29.0363 192.255 28.7145L192.211 28.4708C192.171 28.251 192.151 28.028 192.151 27.805L192.166 14.8216L192.182 2.76845C192.182 2.38616 192.282 2.00388 192.497 1.67894C192.858 1.13259 193.332 0.904804 193.699 0.81879H193.696Z" fill="black"/>
<path d="M196.533 15.7933H192.163V14.8216L197.207 14.836C197.386 14.836 197.558 14.7786 197.693 14.6687C197.815 14.5684 197.97 14.417 198.125 14.2004C198.466 13.7225 198.636 13.2447 198.636 13.2447H199.321L199.318 17.5454H198.636C198.636 17.5454 198.567 17.2921 198.444 17.0038C198.304 16.6757 198.067 16.3906 197.766 16.1787C197.41 15.9302 196.977 15.7949 196.533 15.7949V15.7933Z" fill="black"/>
<path d="M143.775 29.4313C143.042 29.1414 142.572 28.4628 142.574 27.7174L142.604 3.07268C142.604 2.59801 142.71 2.12971 142.909 1.69326C142.923 1.663 142.935 1.63752 142.947 1.61681C143.459 0.820382 143.805 0.841088 144.459 0.579859C144.574 0.533666 144.652 0.503405 144.652 0.503405V0.025548L135.793 0.0159912V0.493848C135.793 0.493848 136.475 0.653126 136.984 1.13258C137.166 1.30301 137.327 1.49416 137.458 1.66938C137.706 2.00229 137.834 2.40368 137.834 2.80986L137.804 28.0566C137.804 28.3704 137.756 28.6826 137.666 28.9837C137.645 29.049 137.618 29.1111 137.58 29.1685C137.357 29.495 137.044 29.761 136.672 29.9346L135.759 30.2819V30.5989L155.199 30.6036L155.539 23.2765H154.858C154.858 23.2765 153.792 26.6358 152.984 27.8958C152.473 28.6922 151.962 29.3293 150.088 29.8072C148.926 30.1035 147.136 29.9729 146.681 29.9665C145.734 29.9537 144.62 29.7626 143.778 29.4297L143.775 29.4313Z" fill="black"/>
<path d="M311.236 29.4313C310.503 29.1414 310.033 28.4628 310.035 27.7174L310.065 3.07268C310.065 2.59801 310.171 2.12971 310.37 1.69326C310.384 1.663 310.396 1.63752 310.408 1.61681C310.92 0.820382 311.266 0.841088 311.92 0.579859C312.034 0.533666 312.113 0.503405 312.113 0.503405V0.025548L303.254 0.0159912V0.493848C303.254 0.493848 303.936 0.653126 304.445 1.13258C304.627 1.30301 304.787 1.49416 304.919 1.66938C305.167 2.00229 305.295 2.40368 305.295 2.80986L305.265 28.0566C305.265 28.3704 305.217 28.6826 305.127 28.9837C305.106 29.049 305.079 29.1111 305.041 29.1685C304.818 29.495 304.505 29.761 304.133 29.9346L303.22 30.2819V30.5989L322.66 30.6036L323 23.2765H322.319C322.319 23.2765 321.253 26.6358 320.445 27.8958C319.934 28.6922 319.423 29.3293 317.549 29.8072C316.387 30.1035 314.597 29.9729 314.142 29.9665C313.195 29.9537 312.08 29.7626 311.239 29.4297L311.236 29.4313Z" fill="black"/>
<path d="M182.964 11.0131C182.282 8.46448 181.601 3.04877 175.638 0.340908C174.611 -0.125799 171.039 0.0223365 171.039 0.0223365H162.35V0.500194C162.35 0.500194 162.861 0.500194 163.543 0.978051C163.55 0.982829 163.556 0.987612 163.563 0.992391C164.091 1.36512 164.395 1.95447 164.395 2.5725V29.0123C164.395 29.6272 163.899 30.1449 163.243 30.2086C162.848 30.2484 162.521 30.2866 162.521 30.2866V30.6418L175.127 30.6052C175.127 30.6052 181.09 29.8088 182.964 20.0923C183.422 17.7206 183.645 13.5616 182.964 11.0131ZM178.449 14.9315C178.4 21.819 177.342 24.0745 176.405 25.9063C175.337 27.9961 173.836 29.0983 173.086 29.5157C172.836 29.6558 172.551 29.7291 172.258 29.7291H169.25V1.21698H172.316C172.626 1.21698 172.803 1.26477 173.509 1.53555C174.957 2.09305 176.054 3.70343 176.916 5.83627C178.364 9.42019 178.466 12.6855 178.449 14.9315Z" fill="black"/>
<path d="M208.176 27.8974C208.687 26.6231 211.02 21.9879 215.502 18.6588C221.294 14.3581 226.745 13.8802 226.745 13.8802V12.9245C226.745 12.9245 221.123 13.4024 214.991 18.0216C210.761 21.209 209.181 24.3596 209.181 24.3596" fill="black"/>
<path d="M1.36286 29.6495C1.79727 29.2433 2.04429 28.8531 2.04429 28.2159C2.04429 27.5788 1.87393 1.93377 1.87393 1.93377C1.87393 1.45591 1.70357 1.13734 1.1925 0.818767C0.681429 0.500196 0 0.492234 0 0.492234V0.0223389H6.14478L13.6286 23.1188L20.9539 0.0223389H27.5979V0.484271C27.5979 0.484271 26.8364 0.616475 26.4054 0.818767C26.0646 0.978053 25.7239 1.13734 25.7239 1.93377C25.7239 1.93377 25.5536 25.5463 25.5536 28.2732C25.5536 28.5695 25.6064 28.8626 25.7273 29.1366C25.8125 29.3293 25.8943 29.4902 26.235 29.8088C26.6387 30.1863 27.5979 30.4427 27.5979 30.4427V30.6052H18.741V30.4459C18.741 30.4459 19.7018 30.0588 20.1021 29.8088C20.6132 29.4902 20.7836 29.1716 20.7836 28.6938V3.68591L12.2606 30.6052H11.2521L3.06643 5.27877V28.2159C3.06643 28.2159 3.06643 29.1716 3.74786 29.6495C4.42929 30.1273 5.11071 30.2866 5.11071 30.2866V30.6052H0.173765L0.170357 30.4459C0.170357 30.4459 1.02214 29.9681 1.36286 29.6495Z" fill="black"/>
<path d="M234.241 0.181625H228.279V0.651519C228.279 0.651519 228.96 0.659482 229.471 0.978053C229.982 1.29662 230.152 1.6152 230.152 2.09305C230.152 2.09305 230.323 27.7381 230.323 28.3752C230.323 29.0123 230.076 29.4026 229.641 29.8088C229.301 30.1273 228.449 30.6052 228.449 30.6052L228.452 30.7645H233.389V30.4459C233.389 30.4459 232.708 30.2866 232.026 29.8088C231.345 29.3309 231.345 28.3752 231.345 28.3752V4.56198L243.508 30.7645H247.359V2.11057C247.359 1.73147 247.359 0.818767 248.21 0.659482C248.738 0.560725 249.403 0.500196 249.403 0.500196V0.0223389H244.125L244.122 0.500196C244.122 0.500196 245.054 0.444446 245.655 0.818767C246.166 1.13734 246.166 1.77448 246.166 2.09305C246.166 2.41162 246.336 26.4638 246.336 26.4638L234.241 0.181625Z" fill="black"/>
<path d="M366.268 0.181625H360.305V0.651519C360.305 0.651519 360.987 0.659482 361.498 0.978053C362.009 1.29662 362.179 1.6152 362.179 2.09305C362.179 2.09305 362.349 27.7381 362.349 28.3752C362.349 29.0123 362.102 29.4026 361.668 29.8088C361.327 30.1273 360.476 30.6052 360.476 30.6052L360.479 30.7645H365.416V30.4459C365.416 30.4459 364.734 30.2866 364.053 29.8088C363.372 29.3309 363.372 28.3752 363.372 28.3752V4.56198L375.535 30.7645H379.385V2.11057C379.385 1.73147 379.385 0.818767 380.237 0.659482C380.765 0.560725 381.429 0.500196 381.429 0.500196V0.0223389H376.152L376.148 0.500196C376.148 0.500196 377.08 0.444446 377.682 0.818767C378.193 1.13734 378.193 1.77448 378.193 2.09305C378.193 2.41162 378.363 26.4638 378.363 26.4638L366.268 0.181625Z" fill="black"/>
<path d="M256.473 0.0223389H265.416V0.379137C265.416 0.379137 264.905 0.500196 264.394 0.978053C263.883 1.45591 263.713 2.41162 264.053 3.52662C264.394 4.64162 269.675 23.7559 269.675 23.7559L273.934 9.57948C273.934 9.57948 272.231 3.68591 272.06 3.04877C271.89 2.41162 271.208 1.6152 270.697 1.29662C270.186 0.978053 268.994 0.500196 268.994 0.500196V0.0223389H275.978L282.622 23.7559L288.755 2.25234C288.755 2.25234 288.926 1.77448 288.415 1.29662C287.903 0.818767 286.711 0.34091 286.711 0.34091V0.0223389H292.503V0.34091C292.503 0.34091 290.97 0.659482 290.288 1.45591C289.607 2.25234 281.6 30.7645 281.6 30.7645H279.556L274.275 11.4909L268.823 30.7645H266.779C266.779 30.7645 259.283 3.20805 259.113 2.7302C258.943 2.25234 258.602 1.6152 257.75 1.13734C256.898 0.659482 256.217 0.181625 256.217 0.181625V0.0223389H256.473Z" fill="black"/>
<path d="M331.006 14.4504C331.006 14.4504 339.862 3.20805 340.544 2.41162C340.544 2.41162 340.885 2.09305 340.885 1.6152V0.978053C340.885 0.818767 340.033 0.500196 340.033 0.500196V0.0223389H344.973V0.500196H344.632C344.462 0.500196 343.099 0.818767 342.247 1.77448C341.396 2.7302 334.241 11.6502 334.241 11.6502C334.241 11.6502 339.522 18.9773 341.566 21.5259C343.61 24.0745 344.462 25.0302 345.995 26.3045C346.738 26.9209 348.786 28.861 351.787 27.7381C353.491 27.1009 354.684 25.6673 355.535 24.0745C356.273 22.6935 357.651 20.4762 358.006 19.9092C358.016 19.8932 358.043 19.9044 358.036 19.9219C357.704 20.8171 355.948 25.5033 355.024 26.9416C354.002 28.5345 352.639 30.1273 350.765 30.4459C348.891 30.7645 346.166 30.9238 344.121 29.8088C342.077 28.6938 339.011 26.1452 336.626 22.6409C334.241 19.1366 331.515 15.6323 331.515 15.6323L331.004 15.6276" fill="black"/>
<path d="M398.636 7.20461H399.487V3.54263C399.487 3.54263 396.591 0.00330172 392.503 0.022416C388.062 0.0431232 384.852 3.06637 384.666 7.04533C384.496 10.6946 386.881 13.5617 389.096 14.527C392.136 15.8522 394.547 15.959 396.591 17.8704C398.636 19.7802 399.31 21.3428 398.806 24.3963C398.465 26.4638 397.613 28.216 395.058 29.1717C393.077 29.9124 390.23 29.7834 388.244 28.8547C385.859 27.7381 384.596 26.3269 383.815 23.7608C383.133 21.526 383.133 20.8952 383.133 20.8952H382.452V25.9892C382.452 25.9892 383.181 27.7652 385.859 29.1717C388.585 30.6037 391.821 30.9238 395.399 30.2867C398.976 29.6496 403.576 26.6247 403.576 21.3715C403.576 16.1182 399.147 13.0934 396.08 12.2986C393.014 11.5021 388.925 10.8666 387.733 7.52319C386.54 4.17978 388.755 1.47351 390.97 1.15494C393.184 0.836364 395.058 1.15493 396.591 2.90548C398.125 4.65603 398.636 7.20302 398.636 7.20302V7.20461Z" fill="black"/>
</svg>
