<svg width="406" height="33" viewBox="0 0 406 33" fill="none" xmlns="http://www.w3.org/2000/svg">
<path d="M37.131 30.2752C36.9828 30.0809 36.8942 29.8706 36.8397 29.697C36.7851 29.5234 36.7596 29.329 36.7596 29.1395L36.7903 4.07268C36.7903 3.59801 36.8959 3.12971 37.0952 2.69326C37.1088 2.663 37.1208 2.63752 37.1327 2.61681C37.6455 1.82038 37.9913 1.84109 38.6454 1.57986C38.7596 1.53367 38.8379 1.50341 38.8379 1.50341V1.02555L29.9794 1.01599V1.49385C29.9794 1.49385 30.6608 1.65313 31.1702 2.13258C31.3525 2.30301 31.5126 2.49416 31.6438 2.66938C31.8925 3.00228 32.0203 3.40368 32.0203 3.80986L31.9896 29.0566C31.9896 29.3704 31.9419 29.6826 31.8516 29.9837C31.8312 30.049 31.8039 30.1111 31.7664 30.1685C31.5995 30.4138 31.3814 30.624 31.1259 30.7865C30.9879 30.8757 30.8346 30.9426 30.6795 31.0015L29.9436 31.2819V31.5988L38.8022 31.602V31.2898C38.8022 31.2898 37.78 31.129 37.1327 30.2736L37.131 30.2752Z" fill="white" stroke="white" stroke-miterlimit="10"/>
<path d="M76.3131 30.2752C76.1649 30.0809 76.0763 29.8706 76.0218 29.697C75.9673 29.5234 75.9417 29.329 75.9417 29.1395L75.9724 4.07268C75.9724 3.59801 76.078 3.12971 76.2773 2.69326C76.291 2.663 76.3029 2.63752 76.3148 2.61681C76.8276 1.82038 77.1734 1.84109 77.8276 1.57986C77.9417 1.53367 78.0201 1.50341 78.0201 1.50341V1.02555L69.1615 1.01599V1.49385C69.1615 1.49385 69.8429 1.65313 70.3523 2.13258C70.5346 2.30301 70.6947 2.49416 70.8259 2.66938C71.0746 3.00228 71.2024 3.40368 71.2024 3.80986L71.1717 29.0566C71.1717 29.3704 71.124 29.6826 71.0337 29.9837C71.0133 30.049 70.986 30.1111 70.9485 30.1685C70.7816 30.4138 70.5635 30.624 70.308 30.7865C70.17 30.8757 70.0167 30.9426 69.8617 31.0015L69.1257 31.2819V31.5988L77.9843 31.602V31.2898C77.9843 31.2898 76.9622 31.129 76.3148 30.2736L76.3131 30.2752Z" fill="white" stroke="white" stroke-miterlimit="10"/>
<path d="M301.355 30.2752C301.207 30.0809 301.118 29.8706 301.064 29.697C301.009 29.5234 300.983 29.329 300.983 29.1395L301.014 4.07268C301.014 3.59801 301.12 3.12971 301.319 2.69326C301.333 2.663 301.345 2.63752 301.357 2.61681C301.869 1.82038 302.215 1.84109 302.869 1.57986C302.983 1.53367 303.062 1.50341 303.062 1.50341V1.02555L294.203 1.01599V1.49385C294.203 1.49385 294.885 1.65313 295.394 2.13258C295.576 2.30301 295.736 2.49416 295.868 2.66938C296.116 3.00228 296.244 3.40368 296.244 3.80986L296.213 29.0566C296.213 29.3704 296.166 29.6826 296.075 29.9837C296.055 30.049 296.028 30.1111 295.99 30.1685C295.823 30.4138 295.605 30.624 295.35 30.7865C295.212 30.8757 295.058 30.9426 294.903 31.0015L294.167 31.2819V31.5988L303.026 31.602V31.2898C303.026 31.2898 302.004 31.129 301.357 30.2736L301.355 30.2752Z" fill="white" stroke="white" stroke-miterlimit="10"/>
<path d="M332.36 30.2752C332.212 30.0809 332.123 29.8706 332.068 29.697C332.014 29.5234 331.988 29.329 331.988 29.1395L332.005 15.4505L332.019 4.07427C332.019 3.5996 332.125 3.1313 332.324 2.69486C332.338 2.6646 332.35 2.63911 332.361 2.61841C332.874 1.82198 333.22 1.84268 333.874 1.58146C333.988 1.53526 334.067 1.505 334.067 1.505V1.02714L325.208 1.01758V1.49544C325.208 1.49544 325.89 1.65472 326.399 2.13417C326.581 2.30461 326.741 2.49575 326.873 2.67096C327.121 3.00387 327.249 3.40528 327.249 3.81146L327.218 29.0582C327.218 29.372 327.171 29.6842 327.08 29.9853C327.06 30.0506 327.033 30.1127 326.995 30.1701C326.828 30.4154 326.61 30.6256 326.355 30.7881C326.217 30.8773 326.063 30.9442 325.908 31.0031L325.172 31.2835V31.6004L334.031 31.6036V31.2914C334.031 31.2914 333.009 31.1306 332.361 30.2752H332.36Z" fill="white" stroke="white" stroke-miterlimit="10"/>
<path d="M355.368 22.4367C355.22 22.2934 355.132 22.1405 355.077 22.013C355.023 21.8856 354.997 21.7438 354.997 21.6053L355.019 3.25555C355.019 2.90831 355.125 2.56584 355.324 2.24567C355.338 2.22337 355.35 2.20426 355.362 2.18993C355.873 1.60694 356.22 1.62287 356.874 1.43172C356.988 1.39827 357.067 1.37597 357.067 1.37597V1.02555L348.379 1.01599V1.36641C348.379 1.36641 349.06 1.48428 349.569 1.83471C349.752 1.96055 349.912 2.09913 350.043 2.22815C350.293 2.47186 350.419 2.76494 350.419 3.06281L350.397 21.5447C350.397 21.7741 350.35 22.0019 350.259 22.2233C350.239 22.2711 350.212 22.3173 350.174 22.3587C350.007 22.5387 349.789 22.6916 349.534 22.811C349.396 22.8764 349.242 22.9257 349.087 22.9687L348.353 23.1726V23.4036L357.041 23.4084V23.179C357.041 23.179 356.019 23.0611 355.372 22.4335L355.368 22.4367Z" fill="white" stroke="white" stroke-miterlimit="10"/>
<path d="M90.6232 30.2752C90.4749 30.0809 90.3864 29.8706 90.3318 29.697C90.2773 29.5234 90.2518 29.329 90.2518 29.1395L90.2824 4.07268C90.2824 3.59801 90.3881 3.12971 90.5874 2.69326C90.601 2.663 90.6129 2.63752 90.6249 2.61681C91.1376 1.82038 91.4835 1.84109 92.1376 1.57986C92.2518 1.53367 92.3301 1.50341 92.3301 1.50341V1.02555L83.4716 1.01599V1.49385C83.4716 1.49385 84.153 1.65313 84.6624 2.13258C84.8446 2.30301 85.0048 2.49416 85.136 2.66938C85.3847 3.00228 85.5124 3.40368 85.5124 3.80986L85.4818 29.0566C85.4818 29.3704 85.4341 29.6826 85.3438 29.9837C85.3233 30.049 85.2961 30.1111 85.2586 30.1685C85.0917 30.4138 84.8736 30.624 84.6181 30.7865C84.4801 30.8757 84.3267 30.9426 84.1717 31.0015L83.4358 31.2819V31.5988L92.2944 31.602V31.2898C92.2944 31.2898 91.2722 31.129 90.6249 30.2736L90.6232 30.2752Z" fill="white" stroke="white" stroke-miterlimit="10"/>
<path d="M48.1888 7.07528C46.1786 9.64775 45.8191 13.9246 45.8038 14.5617C45.6334 21.5703 48.0014 25.2275 50.4034 27.6231C51.044 28.2619 51.6726 28.7588 52.2552 29.1475C53.5908 30.0363 55.2007 30.4903 56.8395 30.4903C60.4545 30.4903 62.6998 29.0997 64.032 27.7824C66.9281 24.9153 67.0984 24.1189 69.1427 21.7296C71.187 19.3403 73.7509 16.9972 76.6384 15.6767C84.6452 12.0131 92.3113 13.2874 95.7184 14.4024C99.4305 15.6178 101.851 17.5881 104.066 19.3403C106.281 21.0924 107.473 23.3224 107.473 23.3224L103.384 7.71242C103.384 7.71242 97.2516 28.7381 97.2516 28.8974C97.2516 29.0567 97.0813 29.8531 97.2516 30.1717C97.422 30.4903 97.7627 30.8089 97.9331 30.9681C98.1034 31.1274 98.6145 31.446 98.6145 31.446V31.6053H93.3334V31.446C93.3334 31.446 94.4271 31.0765 95.037 30.6496C95.7184 30.1717 95.8888 29.6939 95.8888 29.6939L104.229 1.02242H106.281C106.281 1.02242 112.582 24.4374 113.093 26.1896C113.604 27.9417 114.115 30.0124 114.967 30.6496C115.819 31.2867 116.5 31.4253 116.5 31.4253V31.6053H107.642V31.446C107.642 31.446 108.664 31.1274 109.005 30.6496C109.189 30.3931 109.175 29.6939 109.005 28.7381C108.834 27.7824 108.493 25.871 106.449 23.1631C104.405 20.4553 100.87 17.5212 99.4646 16.7917C96.3981 15.1989 92.8206 12.9689 83.7917 14.2431C82.267 14.4582 79.1921 15.3581 77.4885 16.1546C75.7849 16.951 72.7185 19.0217 70.5039 21.5703C68.8599 23.4626 68.2892 24.1189 66.5856 26.1896C61.9349 31.8426 54.7407 32.8636 49.5499 30.331C45.6317 28.4196 40.6914 23.8003 40.8617 16.951C41.0849 7.98799 45.4614 1.34099 55.5124 1.02242C60.4528 0.866322 63.0797 2.68218 65.5635 5.00457C67.2671 6.59742 67.7781 7.39385 67.7781 7.39385L67.7884 11.0574H66.9264C66.9264 11.0574 66.9008 10.2658 66.756 9.62385C66.0746 6.59742 64.2006 4.36742 59.601 3.09314C55.9724 2.08804 51.4239 2.93385 48.1871 7.07528H48.1888Z" fill="white" stroke="white" stroke-miterlimit="10"/>
<path d="M215.309 7.71234C215.309 7.71234 209.176 28.7381 209.176 28.8973C209.176 29.0566 209.006 29.8531 209.176 30.1716C209.347 30.4902 209.687 30.8088 209.858 30.9681C210.028 31.1273 210.539 31.4459 210.539 31.4459V31.6052H205.258V31.4459L206.962 30.6495C207.643 30.3309 207.813 29.6938 207.813 29.6938L216.154 1.02234H218.205C218.205 1.02234 224.507 24.4373 225.018 26.1895C225.529 27.9416 226.04 30.0123 226.892 30.6495C227.743 31.2866 228.425 31.4252 228.425 31.4252V31.6052H219.566V31.4459C219.566 31.4459 220.696 30.8677 220.929 30.6495C221.44 30.1716 221.1 29.3752 220.929 28.7381L215.307 7.71234H215.309Z" fill="white" stroke="white" stroke-miterlimit="10"/>
<path d="M125.531 1.81879C126.894 1.50022 128.086 1.6595 128.768 1.81879C129.449 1.97808 130.642 2.45593 131.153 3.41165C131.664 4.36736 132.516 6.75665 132.516 6.75665H133.197L133.027 1.02236L117.202 1.01758V1.49544C117.202 1.49544 117.884 1.65472 118.393 2.13417C118.575 2.30461 118.736 2.49575 118.867 2.67096C119.115 3.00387 119.243 3.40528 119.243 3.81146L119.212 29.0582C119.212 29.372 119.165 29.6842 119.075 29.9853C119.054 30.0506 119.027 30.1127 118.989 30.1701C118.766 30.4966 118.453 30.7626 118.081 30.9362L117.168 31.2835V31.6004L135.074 31.6052L135.238 24.2781H134.734C134.734 24.2781 133.712 27.3045 133.03 28.5788C132.349 29.8531 132.008 30.9681 129.865 30.9681H125.364C125.023 30.9681 124.621 30.8359 124.461 30.6161C124.265 30.3469 124.148 30.0363 124.09 29.7145L124.046 29.4708C124.006 29.251 123.986 29.028 123.986 28.805L124.001 15.8216L124.017 3.76845C124.017 3.38616 124.117 3.00388 124.332 2.67894C124.693 2.13259 125.166 1.9048 125.534 1.81879H125.531Z" fill="white" stroke="white" stroke-miterlimit="10"/>
<path d="M128.367 16.7933H123.998V15.8216L129.042 15.836C129.221 15.836 129.393 15.7786 129.528 15.6687C129.65 15.5684 129.805 15.417 129.96 15.2004C130.301 14.7225 130.471 14.2447 130.471 14.2447H131.156L131.153 18.5454H130.471C130.471 18.5454 130.402 18.2921 130.279 18.0038C130.139 17.6757 129.902 17.3906 129.601 17.1787C129.245 16.9302 128.812 16.7949 128.367 16.7949V16.7933Z" fill="white" stroke="white" stroke-miterlimit="10"/>
<path d="M194.696 1.81879C196.059 1.50022 197.251 1.6595 197.933 1.81879C198.614 1.97808 199.807 2.45593 200.318 3.41165C200.829 4.36736 201.681 6.75665 201.681 6.75665H202.362L202.192 1.02236L186.367 1.01758V1.49544C186.367 1.49544 187.049 1.65472 187.558 2.13417C187.74 2.30461 187.901 2.49575 188.032 2.67096C188.28 3.00387 188.408 3.40528 188.408 3.81146L188.378 29.0582C188.378 29.372 188.33 29.6842 188.24 29.9853C188.219 30.0506 188.192 30.1127 188.154 30.1701C187.931 30.4966 187.618 30.7626 187.246 30.9362L186.333 31.2835V31.6004L204.239 31.6052L204.403 24.2781H203.899C203.899 24.2781 202.877 27.3045 202.195 28.5788C201.514 29.8531 201.173 30.9681 199.03 30.9681H194.529C194.188 30.9681 193.786 30.8359 193.626 30.6161C193.43 30.3469 193.313 30.0363 193.255 29.7145L193.211 29.4708C193.171 29.251 193.151 29.028 193.151 28.805L193.166 15.8216L193.182 3.76845C193.182 3.38616 193.282 3.00388 193.497 2.67894C193.858 2.13259 194.332 1.9048 194.699 1.81879H194.696Z" fill="white" stroke="white" stroke-miterlimit="10"/>
<path d="M197.533 16.7933H193.163V15.8216L198.207 15.836C198.386 15.836 198.558 15.7786 198.693 15.6687C198.815 15.5684 198.97 15.417 199.125 15.2004C199.466 14.7225 199.636 14.2447 199.636 14.2447H200.321L200.318 18.5454H199.636C199.636 18.5454 199.567 18.2921 199.444 18.0038C199.304 17.6757 199.067 17.3906 198.766 17.1787C198.41 16.9302 197.977 16.7949 197.533 16.7949V16.7933Z" fill="white" stroke="white" stroke-miterlimit="10"/>
<path d="M144.775 30.4313C144.042 30.1414 143.572 29.4628 143.574 28.7174L143.604 4.07269C143.604 3.59801 143.71 3.12971 143.909 2.69326C143.923 2.663 143.935 2.63752 143.947 2.61681C144.459 1.82038 144.805 1.84109 145.459 1.57986C145.574 1.53367 145.652 1.50341 145.652 1.50341V1.02555L136.793 1.01599V1.49385C136.793 1.49385 137.475 1.65313 137.984 2.13258C138.166 2.30301 138.327 2.49416 138.458 2.66938C138.706 3.00229 138.834 3.40368 138.834 3.80986L138.804 29.0567C138.804 29.3704 138.756 29.6826 138.666 29.9837C138.645 30.049 138.618 30.1111 138.58 30.1685C138.357 30.495 138.044 30.761 137.672 30.9346L136.759 31.2819V31.5989L156.199 31.6036L156.539 24.2765H155.858C155.858 24.2765 154.792 27.6358 153.984 28.8958C153.473 29.6922 152.962 30.3293 151.088 30.8072C149.926 31.1035 148.136 30.9729 147.681 30.9665C146.734 30.9537 145.62 30.7626 144.778 30.4297L144.775 30.4313Z" fill="white" stroke="white" stroke-miterlimit="10"/>
<path d="M312.236 30.4313C311.503 30.1414 311.033 29.4628 311.035 28.7174L311.065 4.07269C311.065 3.59801 311.171 3.12971 311.37 2.69326C311.384 2.663 311.396 2.63752 311.408 2.61681C311.92 1.82038 312.266 1.84109 312.92 1.57986C313.034 1.53367 313.113 1.50341 313.113 1.50341V1.02555L304.254 1.01599V1.49385C304.254 1.49385 304.936 1.65313 305.445 2.13258C305.627 2.30301 305.787 2.49416 305.919 2.66938C306.167 3.00229 306.295 3.40368 306.295 3.80986L306.265 29.0567C306.265 29.3704 306.217 29.6826 306.127 29.9837C306.106 30.049 306.079 30.1111 306.041 30.1685C305.818 30.495 305.505 30.761 305.133 30.9346L304.22 31.2819V31.5989L323.66 31.6036L324 24.2765H323.319C323.319 24.2765 322.253 27.6358 321.445 28.8958C320.934 29.6922 320.423 30.3293 318.549 30.8072C317.387 31.1035 315.597 30.9729 315.142 30.9665C314.195 30.9537 313.08 30.7626 312.239 30.4297L312.236 30.4313Z" fill="white" stroke="white" stroke-miterlimit="10"/>
<path d="M183.964 12.0131C183.282 9.46448 182.601 4.04877 176.638 1.34091C175.611 0.874201 172.039 1.02234 172.039 1.02234H163.35V1.50019C163.35 1.50019 163.861 1.50019 164.543 1.97805C164.55 1.98283 164.556 1.98761 164.563 1.99239C165.091 2.36512 165.395 2.95447 165.395 3.5725V30.0123C165.395 30.6272 164.899 31.1449 164.243 31.2086C163.848 31.2484 163.521 31.2866 163.521 31.2866V31.6418L176.127 31.6052C176.127 31.6052 182.09 30.8088 183.964 21.0923C184.422 18.7206 184.645 14.5616 183.964 12.0131ZM179.449 15.9315C179.4 22.819 178.342 25.0745 177.405 26.9063C176.337 28.9961 174.836 30.0983 174.086 30.5157C173.836 30.6558 173.551 30.7291 173.258 30.7291H170.25V2.21698H173.316C173.626 2.21698 173.803 2.26477 174.509 2.53555C175.957 3.09305 177.054 4.70343 177.916 6.83627C179.364 10.4202 179.466 13.6855 179.449 15.9315Z" fill="white" stroke="white" stroke-miterlimit="10"/>
<path d="M209.176 28.8974C209.687 27.6231 212.02 22.9879 216.502 19.6588C222.294 15.3581 227.745 14.8802 227.745 14.8802V13.9245C227.745 13.9245 222.123 14.4024 215.991 19.0216C211.761 22.209 210.181 25.3596 210.181 25.3596" fill="white"/>
<path d="M209.176 28.8974C209.687 27.6231 212.02 22.9879 216.502 19.6588C222.294 15.3581 227.745 14.8802 227.745 14.8802V13.9245C227.745 13.9245 222.123 14.4024 215.991 19.0216C211.761 22.209 210.181 25.3596 210.181 25.3596" stroke="white" stroke-miterlimit="10"/>
<path d="M2.36286 30.6495C2.79727 30.2433 3.04429 29.8531 3.04429 29.2159C3.04429 28.5788 2.87393 2.93377 2.87393 2.93377C2.87393 2.45591 2.70357 2.13734 2.1925 1.81877C1.68143 1.5002 1 1.49223 1 1.49223V1.02234H7.14478L14.6286 24.1188L21.9539 1.02234H28.5979V1.48427C28.5979 1.48427 27.8364 1.61647 27.4054 1.81877C27.0646 1.97805 26.7239 2.13734 26.7239 2.93377C26.7239 2.93377 26.5536 26.5463 26.5536 29.2733C26.5536 29.5695 26.6064 29.8626 26.7273 30.1366C26.8125 30.3293 26.8943 30.4902 27.235 30.8088C27.6387 31.1863 28.5979 31.4427 28.5979 31.4427V31.6052H19.741V31.4459C19.741 31.4459 20.7018 31.0588 21.1021 30.8088C21.6132 30.4902 21.7836 30.1716 21.7836 29.6938V4.68591L13.2606 31.6052H12.2521L4.06643 6.27877V29.2159C4.06643 29.2159 4.06643 30.1716 4.74786 30.6495C5.42929 31.1273 6.11071 31.2866 6.11071 31.2866V31.6052H1.17377L1.17036 31.4459C1.17036 31.4459 2.02214 30.9681 2.36286 30.6495Z" fill="white" stroke="white" stroke-miterlimit="10"/>
<path d="M235.241 1.18162H229.279V1.65152C229.279 1.65152 229.96 1.65948 230.471 1.97805C230.982 2.29662 231.152 2.6152 231.152 3.09305C231.152 3.09305 231.323 28.7381 231.323 29.3752C231.323 30.0123 231.076 30.4026 230.641 30.8088C230.301 31.1273 229.449 31.6052 229.449 31.6052L229.452 31.7645H234.389V31.4459C234.389 31.4459 233.708 31.2866 233.026 30.8088C232.345 30.3309 232.345 29.3752 232.345 29.3752V5.56198L244.508 31.7645H248.359V3.11057C248.359 2.73147 248.359 1.81877 249.21 1.65948C249.738 1.56072 250.403 1.5002 250.403 1.5002V1.02234H245.125L245.122 1.5002C245.122 1.5002 246.054 1.44445 246.655 1.81877C247.166 2.13734 247.166 2.77448 247.166 3.09305C247.166 3.41162 247.336 27.4638 247.336 27.4638L235.241 1.18162Z" fill="white" stroke="white" stroke-miterlimit="10"/>
<path d="M367.268 1.18162H361.305V1.65152C361.305 1.65152 361.987 1.65948 362.498 1.97805C363.009 2.29662 363.179 2.6152 363.179 3.09305C363.179 3.09305 363.349 28.7381 363.349 29.3752C363.349 30.0123 363.102 30.4026 362.668 30.8088C362.327 31.1273 361.476 31.6052 361.476 31.6052L361.479 31.7645H366.416V31.4459C366.416 31.4459 365.734 31.2866 365.053 30.8088C364.372 30.3309 364.372 29.3752 364.372 29.3752V5.56198L376.535 31.7645H380.385V3.11057C380.385 2.73147 380.385 1.81877 381.237 1.65948C381.765 1.56072 382.429 1.5002 382.429 1.5002V1.02234H377.152L377.148 1.5002C377.148 1.5002 378.08 1.44445 378.682 1.81877C379.193 2.13734 379.193 2.77448 379.193 3.09305C379.193 3.41162 379.363 27.4638 379.363 27.4638L367.268 1.18162Z" fill="white" stroke="white" stroke-miterlimit="10"/>
<path d="M257.473 1.02234H266.416V1.37914C266.416 1.37914 265.905 1.5002 265.394 1.97805C264.883 2.45591 264.713 3.41162 265.053 4.52662C265.394 5.64162 270.675 24.7559 270.675 24.7559L274.934 10.5795C274.934 10.5795 273.231 4.68591 273.06 4.04877C272.89 3.41162 272.208 2.6152 271.697 2.29662C271.186 1.97805 269.994 1.5002 269.994 1.5002V1.02234H276.978L283.622 24.7559L289.755 3.25234C289.755 3.25234 289.926 2.77448 289.415 2.29662C288.903 1.81877 287.711 1.34091 287.711 1.34091V1.02234H293.503V1.34091C293.503 1.34091 291.97 1.65948 291.288 2.45591C290.607 3.25234 282.6 31.7645 282.6 31.7645H280.556L275.275 12.4909L269.823 31.7645H267.779C267.779 31.7645 260.283 4.20805 260.113 3.7302C259.943 3.25234 259.602 2.6152 258.75 2.13734C257.898 1.65948 257.217 1.18162 257.217 1.18162V1.02234H257.473Z" fill="white" stroke="white" stroke-miterlimit="10"/>
<path d="M332.006 15.4504C332.006 15.4504 340.862 4.20805 341.544 3.41162C341.544 3.41162 341.885 3.09305 341.885 2.6152V1.97805C341.885 1.81877 341.033 1.5002 341.033 1.5002V1.02234H345.973V1.5002H345.632C345.462 1.5002 344.099 1.81877 343.247 2.77448C342.396 3.7302 335.241 12.6502 335.241 12.6502C335.241 12.6502 340.522 19.9773 342.566 22.5259C344.61 25.0745 345.462 26.0302 346.995 27.3045C347.738 27.9209 349.786 29.861 352.787 28.7381C354.491 28.1009 355.684 26.6673 356.535 25.0745C357.273 23.6935 358.651 21.4762 359.006 20.9092C359.016 20.8932 359.043 20.9044 359.036 20.9219C358.704 21.8171 356.948 26.5033 356.024 27.9416C355.002 29.5345 353.639 31.1273 351.765 31.4459C349.891 31.7645 347.166 31.9238 345.121 30.8088C343.077 29.6938 340.011 27.1452 337.626 23.6409C335.241 20.1366 332.515 16.6323 332.515 16.6323L332.004 16.6276" fill="white"/>
<path d="M332.006 15.4504C332.006 15.4504 340.862 4.20805 341.544 3.41162C341.544 3.41162 341.885 3.09305 341.885 2.6152V1.97805C341.885 1.81877 341.033 1.5002 341.033 1.5002V1.02234H345.973V1.5002H345.632C345.462 1.5002 344.099 1.81877 343.247 2.77448C342.396 3.7302 335.241 12.6502 335.241 12.6502C335.241 12.6502 340.522 19.9773 342.566 22.5259C344.61 25.0745 345.462 26.0302 346.995 27.3045C347.738 27.9209 349.786 29.861 352.787 28.7381C354.491 28.1009 355.684 26.6673 356.535 25.0745C357.273 23.6935 358.651 21.4762 359.006 20.9092C359.016 20.8932 359.043 20.9044 359.036 20.9219C358.704 21.8171 356.948 26.5033 356.024 27.9416C355.002 29.5345 353.639 31.1273 351.765 31.4459C349.891 31.7645 347.166 31.9238 345.121 30.8088C343.077 29.6938 340.011 27.1452 337.626 23.6409C335.241 20.1366 332.515 16.6323 332.515 16.6323L332.004 16.6276" stroke="white" stroke-miterlimit="10"/>
<path d="M399.636 8.20461H400.487V4.54263C400.487 4.54263 397.591 1.0033 393.503 1.02242C389.062 1.04312 385.852 4.06637 385.666 8.04533C385.496 11.6946 387.881 14.5617 390.096 15.527C393.136 16.8522 395.547 16.959 397.591 18.8704C399.636 20.7802 400.31 22.3428 399.806 25.3963C399.465 27.4639 398.613 29.216 396.058 30.1717C394.077 30.9124 391.23 30.7834 389.244 29.8547C386.859 28.7381 385.596 27.3269 384.815 24.7608C384.133 22.526 384.133 21.8952 384.133 21.8952H383.452V26.9892C383.452 26.9892 384.181 28.7652 386.859 30.1717C389.585 31.6037 392.821 31.9238 396.399 31.2867C399.976 30.6496 404.576 27.6247 404.576 22.3715C404.576 17.1182 400.147 14.0934 397.08 13.2986C394.014 12.5021 389.925 11.8666 388.733 8.52319C387.54 5.17978 389.755 2.47351 391.97 2.15494C394.184 1.83636 396.058 2.15493 397.591 3.90548C399.125 5.65603 399.636 8.20302 399.636 8.20302V8.20461Z" fill="white" stroke="white" stroke-miterlimit="10"/>
</svg>
