<?xml version="1.0" encoding="UTF-8"?>
<svg id="Layer_2" data-name="Layer 2" xmlns="http://www.w3.org/2000/svg" viewBox="0 0 2800 1400">
  <defs>
    <style>
      .cls-1 {
        stroke: #000;
        stroke-miterlimit: 10;
      }
    </style>
  </defs>
  <path class="cls-1" d="M438.59,780.15c-.87-1.22-1.39-2.54-1.71-3.63s-.47-2.31-.47-3.5l.18-157.37c0-2.98.62-5.92,1.79-8.66.08-.19.15-.35.22-.48,3.01-5,5.04-4.87,8.88-6.51.67-.29,1.13-.48,1.13-.48v-3s-52-.06-52-.06v3s4,1,6.99,4.01c1.07,1.07,2.01,2.27,2.78,3.37,1.46,2.09,2.21,4.61,2.21,7.16l-.18,158.5c0,1.97-.28,3.93-.81,5.82h0c-.12.41-.28.8-.5,1.16-.98,1.54-2.26,2.86-3.76,3.88-.81.56-1.71.98-2.62,1.35l-4.32,1.76v1.99s52,.02,52,.02v-1.96s-6-1.01-9.8-6.38Z"/>
  <path class="cls-1" d="M668.59,780.15c-.87-1.22-1.39-2.54-1.71-3.63s-.47-2.31-.47-3.5l.18-157.37c0-2.98.62-5.92,1.79-8.66.08-.19.15-.35.22-.48,3.01-5,5.04-4.87,8.88-6.51.67-.29,1.13-.48,1.13-.48v-3s-52-.06-52-.06v3s4,1,6.99,4.01c1.07,1.07,2.01,2.27,2.78,3.37,1.46,2.09,2.21,4.61,2.21,7.16l-.18,158.5c0,1.97-.28,3.93-.81,5.82h0c-.12.41-.28.8-.5,1.16-.98,1.54-2.26,2.86-3.76,3.88-.81.56-1.71.98-2.62,1.35l-4.32,1.76v1.99s52,.02,52,.02v-1.96s-6-1.01-9.8-6.38Z"/>
  <path class="cls-1" d="M1989.59,780.15c-.87-1.22-1.39-2.54-1.71-3.63s-.47-2.31-.47-3.5l.18-157.37c0-2.98.62-5.92,1.79-8.66.08-.19.15-.35.22-.48,3.01-5,5.04-4.87,8.88-6.51.67-.29,1.13-.48,1.13-.48v-3s-52-.06-52-.06v3s4,1,6.99,4.01c1.07,1.07,2.01,2.27,2.78,3.37,1.46,2.09,2.21,4.61,2.21,7.16l-.18,158.5c0,1.97-.28,3.93-.81,5.82h0c-.12.41-.28.8-.5,1.16-.98,1.54-2.26,2.86-3.76,3.88-.81.56-1.71.98-2.62,1.35l-4.32,1.76v1.99s52,.02,52,.02v-1.96s-6-1.01-9.8-6.38Z"/>
  <path class="cls-1" d="M2171.59,780.15c-.87-1.22-1.39-2.54-1.71-3.63s-.47-2.31-.47-3.5l.1-85.94.08-71.42c0-2.98.62-5.92,1.79-8.66.08-.19.15-.35.22-.48,3.01-5,5.04-4.87,8.88-6.51.67-.29,1.13-.48,1.13-.48v-3s-52-.06-52-.06v3s4,1,6.99,4.01c1.07,1.07,2.01,2.27,2.78,3.37,1.46,2.09,2.21,4.61,2.21,7.16l-.18,158.5c0,1.97-.28,3.93-.81,5.82h0c-.12.41-.28.8-.5,1.16-.98,1.54-2.26,2.86-3.76,3.88-.81.56-1.71.98-2.62,1.35l-4.32,1.76v1.99s52,.02,52,.02v-1.96s-6-1.01-9.8-6.38Z"/>
  <path class="cls-1" d="M2306.65,730.94c-.87-.9-1.39-1.86-1.71-2.66s-.47-1.69-.47-2.56l.13-115.2c0-2.18.62-4.33,1.79-6.34.08-.14.15-.26.22-.35,3-3.66,5.04-3.56,8.88-4.76.67-.21,1.13-.35,1.13-.35v-2.2s-51-.06-51-.06v2.2s4,.74,6.99,2.94c1.07.79,2.01,1.66,2.78,2.47,1.47,1.53,2.21,3.37,2.21,5.24l-.13,116.03c0,1.44-.28,2.87-.81,4.26h0c-.12.3-.28.59-.5.85-.98,1.13-2.26,2.09-3.76,2.84-.81.41-1.71.72-2.62.99l-4.31,1.28v1.45s51,.03,51,.03v-1.44s-6-.74-9.8-4.68Z"/>
  <path class="cls-1" d="M752.59,780.15c-.87-1.22-1.39-2.54-1.71-3.63s-.47-2.31-.47-3.5l.18-157.37c0-2.98.62-5.92,1.79-8.66.08-.19.15-.35.22-.48,3.01-5,5.04-4.87,8.88-6.51.67-.29,1.13-.48,1.13-.48v-3s-52-.06-52-.06v3s4,1,6.99,4.01c1.07,1.07,2.01,2.27,2.78,3.37,1.46,2.09,2.21,4.61,2.21,7.16l-.18,158.5c0,1.97-.28,3.93-.81,5.82h0c-.12.41-.28.8-.5,1.16-.98,1.54-2.26,2.86-3.76,3.88-.81.56-1.71.98-2.62,1.35l-4.32,1.76v1.99s52,.02,52,.02v-1.96s-6-1.01-9.8-6.38Z"/>
  <path class="cls-1" d="M503.5,634.5c-11.8,16.15-13.91,43-14,47-1,44,12.9,66.96,27,82,3.76,4.01,7.45,7.13,10.87,9.57,7.84,5.58,17.29,8.43,26.91,8.43,21.22,0,34.4-8.73,42.22-17,17-18,18-23,30-38s27.05-29.71,44-38c47-23,92-15,112-8,21.79,7.63,36,20,49,31s20,25,20,25l-24-98s-36,132-36,133-1,6,0,8,3,4,4,5,4,3,4,3v1s-31,0-31,0v-1s6.42-2.32,10-5c4-3,5-6,5-6l48.96-180h12.04s36.99,147,39.99,158,6,24,11,28,9,4.87,9,4.87v1.13h-52v-1s6-2,8-5c1.08-1.61,1-6,0-12s-3-18-15-35-32.75-35.42-41-40c-18-10-39-24-92-16-8.95,1.35-27,7-37,12s-28,18-41,34c-9.65,11.88-13,16-23,29-27.3,35.49-69.53,41.9-100,26-23-12-52-41-51-84,1.31-56.27,27-98,86-100,29-.98,44.42,10.42,59,25,10,10,13,15,13,15l.06,23h-5.06s-.15-4.97-1-9c-4-19-15-33-42-41-21.3-6.31-48-1-67,25Z"/>
  <path class="cls-1" d="M1484.5,638.5s-36,132-36,133-1,6,0,8,3,4,4,5,4,3,4,3v1s-31,0-31,0v-1l10-5c4-2,5-6,5-6l48.96-180h12.04s36.99,147,39.99,158,6,24,11,28,9,4.87,9,4.87v1.13h-52v-1s6.63-3.63,8-5c3-3,1-8,0-12l-33-132Z"/>
  <path class="cls-1" d="M957.5,601.5c8-2,15-1,19,0s11,4,14,10,8,21,8,21h4l-1-36-92.89-.03v3s4,1,6.99,4.01c1.07,1.07,2.01,2.27,2.78,3.37,1.46,2.09,2.21,4.61,2.21,7.16l-.18,158.5c0,1.97-.28,3.93-.81,5.82h0c-.12.41-.28.8-.5,1.16-1.31,2.05-3.15,3.72-5.33,4.81l-5.36,2.18v1.99s105.11.03,105.11.03l.96-46h-2.96s-6,19-10,27-6,15-18.58,15h-26.42c-2,0-4.36-.83-5.3-2.21-1.15-1.69-1.84-3.64-2.18-5.66l-.26-1.53c-.23-1.38-.35-2.78-.35-4.18l.09-81.51.09-75.67c0-2.4.59-4.8,1.85-6.84,2.12-3.43,4.9-4.86,7.06-5.4Z"/>
  <path class="cls-1" d="M974.15,695.51h-25.65s0-6.1,0-6.1l29.61.09c1.05,0,2.06-.36,2.85-1.05.72-.63,1.63-1.58,2.54-2.94,2-3,3-6,3-6h4.02l-.02,27h-4s-.41-1.59-1.13-3.4c-.82-2.06-2.21-3.85-3.98-5.18h0c-2.09-1.56-4.63-2.41-7.24-2.41Z"/>
  <path class="cls-1" d="M1363.5,601.5c8-2,15-1,19,0s11,4,14,10,8,21,8,21h4l-1-36-92.89-.03v3s4,1,6.99,4.01c1.07,1.07,2.01,2.27,2.78,3.37,1.46,2.09,2.21,4.61,2.21,7.16l-.18,158.5c0,1.97-.28,3.93-.81,5.82h0c-.12.41-.28.8-.5,1.16-1.31,2.05-3.15,3.72-5.33,4.81l-5.36,2.18v1.99s105.11.03,105.11.03l.96-46h-2.96s-6,19-10,27-6,15-18.58,15h-26.42c-2,0-4.36-.83-5.3-2.21-1.15-1.69-1.84-3.64-2.18-5.66l-.26-1.53c-.23-1.38-.35-2.78-.35-4.18l.09-81.51.09-75.67c0-2.4.59-4.8,1.85-6.84,2.12-3.43,4.9-4.86,7.06-5.4Z"/>
  <path class="cls-1" d="M1380.15,695.51h-25.65s0-6.1,0-6.1l29.61.09c1.05,0,2.06-.36,2.85-1.05.72-.63,1.63-1.58,2.54-2.94,2-3,3-6,3-6h4.02l-.02,27h-4s-.41-1.59-1.13-3.4c-.82-2.06-2.21-3.85-3.98-5.18h0c-2.09-1.56-4.63-2.41-7.24-2.41Z"/>
  <path class="cls-1" d="M1070.46,781.13c-4.3-1.82-7.06-6.08-7.05-10.76l.18-154.72c0-2.98.62-5.92,1.79-8.66.08-.19.15-.35.22-.48,3.01-5,5.04-4.87,8.88-6.51.67-.29,1.13-.48,1.13-.48v-3s-52-.06-52-.06v3s4,1,6.99,4.01c1.07,1.07,2.01,2.27,2.78,3.37,1.46,2.09,2.21,4.61,2.21,7.16l-.18,158.5c0,1.97-.28,3.93-.81,5.82h0c-.12.41-.28.8-.5,1.16-1.31,2.05-3.15,3.72-5.33,4.81l-5.36,2.18v1.99s114.11.03,114.11.03l2-46h-4s-6.26,21.09-11,29c-3,5-6,9-17,12-6.82,1.86-17.33,1.04-20,1-5.56-.08-12.1-1.28-17.04-3.37Z"/>
  <path class="cls-1" d="M2053.46,781.13c-4.3-1.82-7.06-6.08-7.05-10.76l.18-154.72c0-2.98.62-5.92,1.79-8.66.08-.19.15-.35.22-.48,3.01-5,5.04-4.87,8.88-6.51.67-.29,1.13-.48,1.13-.48v-3s-52-.06-52-.06v3s4,1,6.99,4.01c1.07,1.07,2.01,2.27,2.78,3.37,1.46,2.09,2.21,4.61,2.21,7.16l-.18,158.5c0,1.97-.28,3.93-.81,5.82h0c-.12.41-.28.8-.5,1.16-1.31,2.05-3.15,3.72-5.33,4.81l-5.36,2.18v1.99s114.11.03,114.11.03l2-46h-4s-6.26,21.09-11,29c-3,5-6,9-17,12-6.82,1.86-17.33,1.04-20,1-5.56-.08-12.1-1.28-17.04-3.37Z"/>
  <path class="cls-1" d="M1300.5,665.5c-4-16-8-50-43-67-6.03-2.93-27-2-27-2h-51v3s3,0,7,3c.04.03.08.06.12.09,3.1,2.34,4.88,6.04,4.88,9.92v165.99c0,3.86-2.91,7.11-6.76,7.51-2.32.25-4.24.49-4.24.49v2.23l74-.23s35-5,46-66c2.69-14.89,4-41,0-57ZM1274,690.1c-.29,43.24-6.5,57.4-12,68.9-6.27,13.12-15.08,20.04-19.48,22.66-1.47.88-3.14,1.34-4.86,1.34h-17.66v-179h18c1.82,0,2.86.3,7,2,8.5,3.5,14.94,13.61,20,27,8.5,22.5,9.1,43,9,57.1Z"/>
  <path class="cls-1" d="M1448.5,771.5c3-8,16.69-37.1,43-58,34-27,66-30,66-30v-6s-33,3-69,32c-24.83,20.01-34.1,39.79-34.1,39.79"/>
  <path class="cls-1" d="M234.5,782.5c2.55-2.55,4-5,4-9s-1-165-1-165c0-3-1-5-4-7s-7-2.05-7-2.05v-2.95h36.07l43.93,145,43-145h39s0,2.9,0,2.9c0,0-4.47.83-7,2.1-2,1-4,2-4,7,0,0-1,148.24-1,165.36,0,1.86.31,3.7,1.02,5.42.5,1.21.98,2.22,2.98,4.22,2.37,2.37,8,3.98,8,3.98v1.02h-51.99v-1s5.64-2.43,7.99-4c3-2,4-4,4-7v-157s-50.03,169-50.03,169h-5.92l-48.05-159v144s0,6,4,9,8,4,8,4v2h-28.98l-.02-1s5-3,7-5Z"/>
  <path class="cls-1" d="M1601.5,597.5h-35v2.95s4,.05,7,2.05,4,4,4,7c0,0,1,161,1,165s-1.45,6.45-4,9c-2,2-7,5-7,5l.02,1h28.98v-2s-4-1-8-4-4-9-4-9v-149.5l71.4,164.5h22.6v-179.89c0-2.38,0-8.11,5-9.11,3.1-.62,7-1,7-1v-3h-30.98l-.02,3s5.47-.35,9,2c3,2,3,6,3,8s1,153,1,153l-71-165Z"/>
  <path class="cls-1" d="M2376.5,597.5h-35v2.95s4,.05,7,2.05,4,4,4,7c0,0,1,161,1,165s-1.45,6.45-4,9c-2,2-7,5-7,5l.02,1h28.98v-2s-4-1-8-4-4-9-4-9v-149.5l71.4,164.5h22.6v-179.89c0-2.38,0-8.11,5-9.11,3.1-.62,7-1,7-1v-3h-30.98l-.02,3s5.47-.35,9,2c3,2,3,6,3,8s1,153,1,153l-71-165Z"/>
  <path class="cls-1" d="M1732,596.5h52.5v2.24s-3,.76-6,3.76-4,9-2,16,33,127,33,127l25-89s-10-37-11-41-5-9-8-11-10-5-10-5v-3h41s39,149,39,149l36-135s1-3-2-6-10-6-10-6v-2h34s0,2,0,2c0,0-9,2-13,7s-51,184-51,184h-12l-31-121-32,121h-12s-44-173-45-176-3-7-8-10-9-6-9-6v-1h1.5Z"/>
  <path class="cls-1" d="M2169.51,687.08s51.99-70.58,55.99-75.58c0,0,2-2,2-5v-4c0-1-5-3-5-3v-3h29v3h-2c-1,0-9,2-14,8s-47,62-47,62c0,0,31,46,43,62s17,22,26,30c4.36,3.87,16.38,16.05,34,9,10-4,17-13,22-23,4.33-8.67,12.42-22.59,14.5-26.15.06-.1.22-.03.18.08-1.95,5.62-12.26,35.04-17.68,44.07-6,10-14,20-25,22s-27,3-39-4-30-23-44-45-30-44-30-44l-3-.03"/>
  <path class="cls-1" d="M2566.5,641.59h5v-22.99s-17-22.22-41-22.1c-26.07.13-44.91,19.11-46,44.09-1,22.91,13,40.91,26,46.97,17.85,8.32,32,8.99,44,20.99,12,11.99,15.96,21.8,13,40.97-2,12.98-7,23.98-22,29.98-11.63,4.65-28.34,3.84-40-1.99-14-7.01-21.41-15.87-26-31.98-4-14.03-4-17.99-4-17.99h-4v31.98s4.28,11.15,20,19.98c16,8.99,35,11,56,7s48-22.99,48-55.97-26-51.97-44-56.96c-18-5-42-8.99-49-29.98s6-37.98,19-39.98,24,0,33,10.99,12,26.98,12,26.98Z"/>
</svg>